<svg id="Layer_1" data-name="Layer 1" xmlns="http://www.w3.org/2000/svg" viewBox="0 0 307.2 302.19"><defs><style>.cls-1,.cls-2,.cls-3{stroke:#765191;stroke-miterlimit:10;}.cls-2{fill:#333;}.cls-3{fill:#fbb03b;}</style></defs><path class="cls-1" d="M292.44,167.37a110.28,110.28,0,0,1-.57,11.1,108.21,108.21,0,0,1-1.68,10.82c-.94,19.38-9,36.69-21.22,50.79a106,106,0,0,1-13.55,13,114.74,114.74,0,0,1-15.7,10.58,118.74,118.74,0,0,1-17.24,7.92A109.49,109.49,0,0,1,186,278.37q-7.31,1-14.68,1.78c-25.84.07-56.76-.65-84.28-8.16a147.29,147.29,0,0,1-16-5.35C47.69,257,25.69,238,20.29,211.83q-1.17-5.85-1.82-12.05a108.06,108.06,0,0,1-5-32.41,87.5,87.5,0,0,1,4.9-31.14C37.79,81.57,97.7,60.12,152.08,59.79c1.75,0,3.5,0,5.22.07,34.37,6.42,69.37,11.42,99.31,29.92q2,1.57,4,3.26a84.5,84.5,0,0,1,25.75,38.81,99.4,99.4,0,0,1,4.29,15.92A104.67,104.67,0,0,1,292.44,167.37Z"/><path d="M296.87,102c-14.75,31.08-44.44,47.85-66.32,37.47-15.81-7.51-23.22-27.12-20.56-49.14a28.27,28.27,0,0,0,.33-5.26c-.65-7.75-15.65-8.75-12.65-14.75,5-10,20-9,26.82-17.9q1.27-1.85,2.61-3.6c9.57-15.5,26.57-24.5,40.57-36.25,1.08-.89,2.18-1.75,3.29-2.59A60.88,60.88,0,0,1,289.62,0a10.52,10.52,0,0,1,3.44,1.19c5.59,3,10.35,10.83,11.57,17.06.14,1.33.24,2.64.34,4,.21,3,.41,6,.55,9,.07,1.51.13,3,.16,4.54,3,12.53,1,26.53-1.1,39.74-.16,1.25-.33,2.49-.53,3.73A84.92,84.92,0,0,1,296.87,102Z"/><path d="M93.79,57.6c.88,1.68,1.88,3.68,3.65,4.32.81.67,1.62,1.35,2.4,2,2.33,2.07,4.33,4.32,4.83,7.32,2,8-8,11-6.42,19.11.09,1.76.13,3.51.11,5.23-.23,18.92-7.67,34.6-21.33,40.84a32.56,32.56,0,0,1-20,2.07,40.21,40.21,0,0,1-4.2-1c-9.13-5.21-20.13,2.79-27.13-4.21-10-8-7-23-14.2-33.63q-.72-1.35-1.38-2.73T8.77,94.16C2.53,80.48-.23,66.48.21,54c.06-1.56.16-3.09.32-4.6A27.47,27.47,0,0,1,0,45.05C1.67,30.28,4.67,4.28,22.67,7.28s39,7,49.11,24.65c1.29,1.72,2.57,3.46,3.87,5.19A109.58,109.58,0,0,0,88.13,51.78c1.32,1.11,2.66,2.19,4,3.29C92.61,55.83,93.14,56.69,93.79,57.6Z"/><path class="cls-1" d="M204,284.16c-9.85,4.56-21.06,5-31.92,5.21-19.91.43-40.11.44-59.36-4.67-6.71-1.78-13.75-4.56-17.39-10.46-3.3-5.35-3.07-12.08-2.74-18.35.32-5.93.7-12.11,3.66-17.26,5.26-9.17,16.76-12.27,27.08-14.55,16.8-3.7,33.78-7.43,51-7.22,15.24.18,45.13,4.32,52.09,20.9C233.51,254.59,218.93,277.27,204,284.16Z"/><path class="cls-1" d="M174.73,289.59c6,7.88,15.88,13.32,25.67,11.86a31.55,31.55,0,0,0,12.06-4.92c17.34-11,27.3-31.52,28.66-52,.47-7.19-.13-14.84-4.2-20.79-5.58-8.17-16.11-11.1-25.85-12.87q-11.59-2.1-23.34-3.14c-7.25-.63-15.75-.42-20.16,5.35-2,2.65-2.77,6-3.31,9.31C161,242.38,161.9,272.68,174.73,289.59Z"/><path class="cls-1" d="M161,252.43c.22,9.23.32,18.95-4.13,27-6.74,12.28-22,17.19-36,18-10.91.64-22.63-.82-31.06-7.78-6.76-5.58-10.6-14.18-11.56-22.89S79,249.26,81.89,241c2.26-6.52,5.4-13,10.77-17.33s12.69-6.09,19.67-7.13a149.4,149.4,0,0,1,43.17-.06C165.07,217.85,160.82,244.3,161,252.43Z"/><path class="cls-2" d="M170.73,204.67c5.36,0,11.77,1.55,13.47,6.63a10.29,10.29,0,0,1,.13,5.23c-1,4.77-4,8.85-7,12.69-4.16,5.34-9.17,11-15.9,11.68-5,.53-10-2-13.67-5.47s-6.19-8-8.67-12.44c-2-3.64-4.08-8.18-1.91-11.74,1.66-2.72,5.17-3.64,8.36-3.81C154,207,162.29,204.7,170.73,204.67Z"/><path class="cls-2" d="M136.44,179.31c-10.21,7.78-22.54,7.83-34.16,6.61-1-.13-2-.3-3-.52a28.73,28.73,0,0,1-8.8-3.5,28.48,28.48,0,0,1-9.07-8.6C75,163.74,70.27,151.25,72.93,139a11.3,11.3,0,0,1,2.25-3.08,11.59,11.59,0,0,1,2.52-1.83c10.91-7,23.24-7,34.55-3.08.8.23,1.6.49,2.39.79a30.22,30.22,0,0,1,4.61,2.26,29,29,0,0,1,6.6,5.44c.64.69,1.25,1.41,1.88,2.14,8.35,8.7,10.79,21.91,9.73,33.71A9.07,9.07,0,0,1,136.44,179.31Z"/><path class="cls-2" d="M180.07,179.31c10.21,7.78,22.54,7.83,34.17,6.61,1-.13,2-.3,3-.52a29.1,29.1,0,0,0,16-9.64,29.26,29.26,0,0,0,1.85-2.46c6.32-9.56,11.1-22.05,8.43-34.32a11.48,11.48,0,0,0-2.24-3.08,11.84,11.84,0,0,0-2.52-1.83c-10.92-7-23.24-7-34.56-3.08-.8.23-1.59.49-2.38.79a29.88,29.88,0,0,0-4.62,2.26,29,29,0,0,0-6.6,5.44c-.63.69-1.25,1.41-1.87,2.14-8.36,8.7-10.8,21.91-9.74,33.71A9.36,9.36,0,0,0,180.07,179.31Z"/><ellipse class="cls-3" cx="211.58" cy="157.42" rx="27.44" ry="24.79"/><ellipse class="cls-3" cx="104.99" cy="159.4" rx="27.44" ry="24.79"/></svg>